<svg xmlns="http://www.w3.org/2000/svg" width="19.678" height="19.678" viewBox="0 0 19.678 19.678">
  <path id="Icon_ionic-ios-close-circle" data-name="Icon ionic-ios-close-circle" d="M13.214,3.375a9.839,9.839,0,1,0,9.839,9.839A9.837,9.837,0,0,0,13.214,3.375Zm2.493,13.4-2.493-2.493-2.493,2.493a.756.756,0,1,1-1.069-1.069l2.493-2.493L9.652,10.721a.756.756,0,0,1,1.069-1.069l2.493,2.493,2.493-2.493a.756.756,0,1,1,1.069,1.069l-2.493,2.493,2.493,2.493a.759.759,0,0,1,0,1.069A.751.751,0,0,1,15.707,16.776Z" transform="translate(-3.375 -3.375)" fill="#645beb"/>
</svg>
